Coordinates
version=1
nRows=32
nColumns=12
inDegrees=yes

Units are S.I. units (second, meters, Newtons, ...)
Angles are in degrees

endheader
time	SC_y	SC_z	SC_x	AC_y	AC_z	AC_x	GH_y	GH_z	GH_yy	EL_x	PS_y
       0.0              -42.75          1.557          5.954          46.17         -5.884         0.5219         -27.16          73.15         -159.8          132.3           78.2
   0.01271              -42.74          1.562          5.965          46.17         -5.882         0.5206         -27.14          73.14         -159.7          132.3          78.21
   0.02542              -42.74          1.567          5.976          46.17          -5.88         0.5193         -27.12          73.13         -159.7          132.3          78.21
   0.03813              -42.73          1.572          5.988          46.17         -5.877         0.5179          -27.1          73.12         -159.7          132.3          78.22
   0.05084              -42.73          1.578          6.001          46.17         -5.875         0.5164         -27.08          73.11         -159.6          132.2          78.23
   0.06355              -42.73          1.584          6.015          46.16         -5.872         0.5148         -27.06           73.1         -159.6          132.2          78.23
   0.07626              -42.72           1.59           6.03          46.16          -5.87         0.5131         -27.03          73.09         -159.5          132.2          78.24
   0.08896              -42.72          1.597          6.045          46.16         -5.867         0.5112         -27.01          73.08         -159.5          132.2          78.25
    0.1017              -42.71          1.605          6.062          46.15         -5.863         0.5093         -26.98          73.06         -159.4          132.2          78.26
    0.1144               -42.7          1.613           6.08          46.15          -5.86         0.5072         -26.95          73.05         -159.3          132.2          78.27
    0.1271               -42.7          1.621            6.1          46.15         -5.856         0.5049         -26.92          73.04         -159.3          132.2          78.28
    0.1398              -42.69          1.631          6.121          46.14         -5.853         0.5025         -26.89          73.02         -159.2          132.2          78.29
    0.1525              -42.68          1.641          6.143          46.14         -5.848         0.4999         -26.85           73.0         -159.1          132.1           78.3
    0.1652              -42.67          1.651          6.167          46.13         -5.844          0.497         -26.81          72.98         -159.0          132.1          78.32
    0.1779              -42.67          1.663          6.194          46.13         -5.839          0.494         -26.77          72.97         -158.9          132.1          78.33
    0.1906              -42.66          1.676          6.222          46.12         -5.834         0.4906         -26.72          72.94         -158.8          132.1          78.35
    0.2033              -42.65          1.689          6.253          46.11         -5.828          0.487         -26.67          72.92         -158.7          132.1          78.36
    0.2161              -42.63          1.704          6.287          46.11         -5.821         0.4831         -26.62          72.89         -158.6          132.0          78.38
    0.2288              -42.62          1.721          6.324           46.1         -5.815         0.4788         -26.56          72.87         -158.4          132.0           78.4
    0.2415              -42.61          1.739          6.364          46.09         -5.807         0.4741         -26.49          72.84         -158.3          132.0          78.42
    0.2542              -42.59          1.758          6.409          46.08         -5.799         0.4689         -26.42           72.8         -158.1          132.0          78.45
    0.2669              -42.58           1.78          6.458          46.07          -5.79         0.4632         -26.34          72.76         -158.0          131.9          78.47
    0.2796              -42.56          1.804          6.511          46.06          -5.78         0.4569         -26.26          72.72         -157.8          131.9           78.5
    0.2923              -42.54           1.83          6.571          46.05         -5.768           0.45         -26.16          72.68         -157.5          131.8          78.54
     0.305              -42.52           1.86          6.638          46.04         -5.756         0.4422         -26.05          72.63         -157.3          131.8          78.57
    0.3177              -42.49          1.892          6.712          46.02         -5.742         0.4336         -25.93          72.57         -157.0          131.7          78.61
    0.3304              -42.46          1.929          6.795          46.01         -5.727         0.4239          -25.8          72.51         -156.7          131.7          78.66
    0.3431              -42.43           1.97          6.888          45.99         -5.709          0.413         -25.65          72.44         -156.4          131.6          78.71
    0.3559               -42.4          2.017          6.993          45.97         -5.689         0.4007         -25.48          72.36         -156.0          131.5          78.76
    0.3686              -42.36           2.07          7.113          45.94         -5.667         0.3868         -25.28          72.27         -155.6          131.5          78.83
    0.3813              -42.31          2.131           7.25          45.91         -5.642         0.3708         -25.06          72.16         -155.1          131.4           78.9
     0.394              -42.26            2.2          7.407          45.88         -5.612         0.3525         -24.81          72.04         -154.5          131.2          78.99
